HIERARCHY
ROOT Hips
{
	OFFSET -0.001795 -0.223333 0.028219
	CHANNELS 6 Xposition Yposition Zposition Zrotation Yrotation Xrotation
	JOINT LeftUpLeg
	{
		OFFSET 0.069520 -0.091406 -0.006815
		CHANNELS 3 Zrotation Yrotation Xrotation
		JOINT LeftLeg
		{
			OFFSET 0.034277 -0.375199 -0.004496
			CHANNELS 3 Zrotation Yrotation Xrotation
			JOINT LeftFoot
			{
				OFFSET -0.013596 -0.397961 -0.043693
				CHANNELS 3 Zrotation Yrotation Xrotation
				JOINT LeftToe
				{
					OFFSET 0.026358 -0.055791 0.119288
					CHANNELS 3 Zrotation Yrotation Xrotation
					End Site
					{
						OFFSET 0.000000 0.000000 0.000000
					}
				}
			}
		}
	}
	JOINT RightUpLeg
	{
		OFFSET -0.067670 -0.090522 -0.004320
		CHANNELS 3 Zrotation Yrotation Xrotation
		JOINT RightLeg
		{
			OFFSET -0.038290 -0.382569 -0.008850
			CHANNELS 3 Zrotation Yrotation Xrotation
			JOINT RightFoot
			{
				OFFSET 0.015774 -0.398415 -0.042312
				CHANNELS 3 Zrotation Yrotation Xrotation
				JOINT RightToe
				{
					OFFSET -0.025372 -0.048144 0.123348
					CHANNELS 3 Zrotation Yrotation Xrotation
					End Site
					{
						OFFSET 0.000000 0.000000 0.000000
					}
				}
			}
		}
	}
	JOINT Spine
	{
		OFFSET -0.002533 0.108963 -0.026696
		CHANNELS 3 Zrotation Yrotation Xrotation
		JOINT Spine1
		{
			OFFSET 0.005487 0.135180 0.001092
			CHANNELS 3 Zrotation Yrotation Xrotation
			JOINT Spine2
			{
				OFFSET 0.001457 0.052922 0.025425
				CHANNELS 3 Zrotation Yrotation Xrotation
				JOINT Neck
				{
					OFFSET -0.002778 0.213870 -0.042857
					CHANNELS 3 Zrotation Yrotation Xrotation
					JOINT Head
					{
						OFFSET 0.005152 0.064970 0.051349
						CHANNELS 3 Zrotation Yrotation Xrotation
						End Site
						{
							OFFSET 0.000000 0.000000 0.000000
						}
					}
				}
				JOINT LeftShoulder
				{
					OFFSET 0.078845 0.121749 -0.034090
					CHANNELS 3 Zrotation Yrotation Xrotation
					JOINT LeftArm
					{
						OFFSET 0.090977 0.030469 -0.008868
						CHANNELS 3 Zrotation Yrotation Xrotation
						JOINT LeftForeArm
						{
							OFFSET 0.259612 -0.012772 -0.027456
							CHANNELS 3 Zrotation Yrotation Xrotation
							JOINT LeftHand
							{
								OFFSET 0.249234 0.008986 -0.001171
								CHANNELS 3 Zrotation Yrotation Xrotation
								End Site
								{
									OFFSET 0.000000 0.000000 0.000000
								}
							}
						}
					}
				}
				JOINT RightShoulder
				{
					OFFSET -0.081759 0.118833 -0.038615
					CHANNELS 3 Zrotation Yrotation Xrotation
					JOINT RightArm
					{
						OFFSET -0.096012 0.032551 -0.009143
						CHANNELS 3 Zrotation Yrotation Xrotation
						JOINT RightForeArm
						{
							OFFSET -0.253742 -0.013329 -0.021401
							CHANNELS 3 Zrotation Yrotation Xrotation
							JOINT RightHand
							{
								OFFSET -0.255298 0.007772 -0.005559
								CHANNELS 3 Zrotation Yrotation Xrotation
								End Site
								{
									OFFSET 0.000000 0.000000 0.000000
								}
							}
						}
					}
				}
			}
		}
	}
}
MOTION
Frames: 9
Frame Time: 0.050000
0.000000 0.970880 0.000000 -2.206894 8.869399 -1.256789 3.374900 0.230216 7.056573 -3.274901 0.298550 -6.857233 0.535228 9.367459 21.333690 0.000000 0.000000 0.000000 2.037678 -0.534843 4.044019 1.130668 -0.131101 0.451424 -2.500452 -9.524547 18.468658 0.000000 0.000000 0.000000 -1.444890 -0.292760 8.798999 4.153520 -0.102395 -26.689831 -1.437698 -2.985178 28.777660 -0.277506 1.958080 -22.594167 0.000000 0.000000 0.000000 -30.460104 1.041850 -3.905957 -45.723726 -2.699376 -6.454320 -11.746270 -26.333150 3.956879 0.000000 0.000000 0.000000 23.155197 1.143084 0.455280 52.392336 2.082791 -7.162191 4.491111 28.970769 2.688959 0.000000 0.000000 0.000000
-0.000108 0.969975 0.000420 -2.351022 8.728911 -0.831154 3.382797 0.214091 6.702678 -2.735987 0.283923 -7.244198 0.158947 8.988152 21.804473 0.000000 0.000000 0.000000 1.817682 -0.442941 3.403709 1.779490 -0.216633 0.394391 -2.549154 -9.707828 19.083933 0.000000 0.000000 0.000000 -0.994993 -0.301718 8.253303 3.993111 -0.060430 -26.892066 -1.600228 -3.228572 28.619355 -1.276532 2.572166 -23.239719 0.000000 0.000000 0.000000 -30.195734 2.144716 -4.500934 -45.997809 -2.726624 -6.501498 -12.662000 -26.731402 4.264132 0.000000 0.000000 0.000000 22.840258 1.116812 0.340822 53.634656 1.081242 -7.663133 3.256065 31.188635 2.639831 0.000000 0.000000 0.000000
-0.000154 0.969376 0.000681 -2.016079 8.530620 -0.499364 3.222441 0.209693 6.181480 -3.041452 0.296357 -6.285859 -0.006403 8.352940 20.391106 0.000000 0.000000 0.000000 1.615966 -0.404481 3.162433 1.669622 -0.200655 0.426481 -2.768505 -10.026591 18.411103 0.000000 0.000000 0.000000 -0.852466 -0.298057 7.999206 3.941833 -0.034278 -27.267247 -2.028797 -3.353825 29.008932 -1.578911 2.720544 -23.323024 0.000000 0.000000 0.000000 -30.167162 1.923474 -4.210591 -45.973644 -2.938769 -6.496688 -12.212481 -27.139670 4.249395 0.000000 0.000000 0.000000 22.739376 1.252375 0.341736 53.652650 0.972713 -7.707456 4.169450 30.820308 2.809219 0.000000 0.000000 0.000000
-0.000122 0.969387 0.000852 -2.153404 8.596059 -0.613387 3.016749 0.240166 6.495468 -2.438817 0.275677 -6.233578 -0.054240 7.990243 19.302422 0.000000 0.000000 0.000000 1.648758 -0.442846 3.453147 2.215330 -0.275623 0.229527 -3.217445 -10.755925 18.163613 0.000000 0.000000 0.000000 -0.787445 -0.307482 8.076207 4.447373 -0.115291 -28.056612 -2.351956 -3.406702 29.724195 -1.465220 2.646667 -23.257043 0.000000 0.000000 0.000000 -30.903624 2.478948 -4.685659 -45.728735 -2.753471 -6.579836 -12.523388 -27.646150 4.427671 0.000000 0.000000 0.000000 22.890092 1.587994 0.565546 53.230703 1.210040 -7.638466 3.898038 31.003438 2.759881 0.000000 0.000000 0.000000
-0.000092 0.969229 0.001070 -2.146450 8.227369 -0.644283 2.858124 0.262984 6.541588 -2.133335 0.267889 -6.128897 -0.058637 7.924631 19.274005 0.000000 0.000000 0.000000 1.595787 -0.472796 3.707154 2.071952 -0.261147 -0.108095 -2.791100 -10.076421 18.013180 0.000000 0.000000 0.000000 -0.629733 -0.332517 8.377710 4.905167 -0.229236 -27.810444 -2.568626 -2.801796 29.052570 -1.310593 2.556251 -21.868078 0.000000 0.000000 0.000000 -30.877159 2.049958 -4.555670 -45.696585 -2.515550 -6.553057 -13.020600 -28.150006 4.608073 0.000000 0.000000 0.000000 22.498819 1.421296 0.536767 53.672618 1.182691 -7.625343 4.532343 31.184194 2.957757 0.000000 0.000000 0.000000
0.000095 0.968974 0.001334 -2.178684 8.062683 -0.758907 2.746902 0.282572 6.678172 -1.755857 0.254603 -6.043769 -0.270384 7.572818 19.136202 0.000000 0.000000 0.000000 1.551825 -0.519399 4.090675 2.200230 -0.278784 -0.246352 -2.655499 -9.777497 17.277356 0.000000 0.000000 0.000000 -0.606323 -0.335588 8.415296 5.103847 -0.264390 -28.018309 -2.629845 -2.777502 29.275176 -1.163653 2.433173 -21.552327 0.000000 0.000000 0.000000 -30.879463 2.127389 -4.564838 -45.831722 -2.552534 -6.590218 -12.938388 -28.485790 4.656635 0.000000 0.000000 0.000000 22.623128 1.829576 0.759393 53.394277 1.143637 -7.635181 4.468728 31.339174 2.945688 0.000000 0.000000 0.000000
0.000379 0.968548 0.001626 -2.098537 7.805483 -0.820351 2.562405 0.313387 6.871648 -1.620081 0.251606 -6.079592 -0.216903 7.547598 18.935458 0.000000 0.000000 0.000000 1.541499 -0.542972 4.284853 2.035158 -0.257823 -0.283911 -2.588737 -9.633148 16.760545 0.000000 0.000000 0.000000 -0.542097 -0.349893 8.634068 5.311869 -0.313660 -27.990919 -2.795703 -2.608561 29.212622 -0.961192 2.285156 -21.203036 0.000000 0.000000 0.000000 -30.849661 2.030301 -4.481565 -46.138879 -2.369184 -6.700287 -13.100919 -28.799535 4.762618 0.000000 0.000000 0.000000 22.477553 1.964517 0.831599 53.657375 1.051815 -7.692510 4.900572 31.977460 3.140635 0.000000 0.000000 0.000000
0.000816 0.968012 0.001903 -2.054050 7.506289 -0.938546 2.421757 0.335947 6.956368 -1.261403 0.237517 -5.948020 -0.575137 7.043782 19.043532 0.000000 0.000000 0.000000 1.492134 -0.548008 4.351284 2.026386 -0.249685 0.029070 -2.576305 -9.566357 16.102774 0.000000 0.000000 0.000000 -0.384205 -0.371453 8.845893 5.336683 -0.317431 -28.085563 -2.850561 -2.321408 29.185747 -0.696697 2.100695 -20.641784 0.000000 0.000000 0.000000 -30.684463 1.937300 -4.421305 -46.453240 -2.137844 -6.822277 -12.741942 -29.085906 4.720254 0.000000 0.000000 0.000000 22.450976 1.980091 0.865391 53.697127 0.835374 -7.793353 5.515819 32.676488 3.407026 0.000000 0.000000 0.000000
0.001329 0.967853 0.002153 -2.032817 7.350416 -0.975593 2.348782 0.347229 6.993977 -1.115841 0.229661 -5.783661 -0.763634 6.695019 18.835726 0.000000 0.000000 0.000000 1.399084 -0.547516 4.387050 1.897342 -0.230502 0.148334 -2.259680 -8.994404 15.888315 0.000000 0.000000 0.000000 -0.305079 -0.386699 9.037287 5.401694 -0.330644 -28.122364 -2.929366 -2.204310 29.127478 -0.537962 1.983805 -20.376146 0.000000 0.000000 0.000000 -30.612342 2.095095 -4.519811 -46.887134 -1.843030 -6.987713 -12.444301 -29.260664 4.681507 0.000000 0.000000 0.000000 22.514485 1.842313 0.781893 53.747339 0.561443 -7.911288 5.614017 33.422813 3.540518 0.000000 0.000000 0.000000
